<svg width="1010" height="997" viewBox="0 0 1010 997" fill="none" xmlns="http://www.w3.org/2000/svg">
<path fill-rule="evenodd" clip-rule="evenodd" d="M604.613 33.9235C545.476 -10.0253 464.524 -10.0253 405.387 33.9236L67.7744 284.826C10.5629 327.344 -13.3555 401.487 8.22429 469.423L138.698 880.168C160.724 949.508 225.106 996.609 297.861 996.609H712.139C784.893 996.609 849.276 949.508 871.302 880.168L1001.78 469.423C1023.36 401.487 999.437 327.344 942.225 284.826L604.613 33.9235ZM553.821 248.399C539.054 201.916 473.28 201.916 458.514 248.399L421.629 364.511C415.034 385.272 395.758 399.373 373.975 399.373H252.254C204.092 399.373 183.774 460.778 222.431 489.505L322.833 564.117C339.963 576.847 347.125 599.046 340.663 619.387L302.774 738.66C288.077 784.925 341.288 822.885 380.25 793.93L476.344 722.52C494.049 709.363 518.285 709.363 535.99 722.52L632.084 793.93C671.047 822.885 724.257 784.925 709.561 738.66L671.671 619.387C665.21 599.046 672.371 576.847 689.501 564.117L789.903 489.505C828.56 460.778 808.242 399.373 760.08 399.373H638.359C616.577 399.373 597.3 385.271 590.706 364.511L553.821 248.399Z" fill="#0C64E6"/>
</svg>
