<svg width="32" height="32" viewBox="0 0 32 32" fill="none" xmlns="http://www.w3.org/2000/svg">
<path fill-rule="evenodd" clip-rule="evenodd" d="M13.4083 0.873066C14.9537 -0.291021 17.0463 -0.291023 18.5917 0.873065L30.1821 9.60372C31.7275 10.7678 32.3742 12.8312 31.7839 14.7147L27.3567 28.8412C26.7665 30.7248 25.0735 32 23.1633 32H8.83672C6.92651 32 5.23354 30.7248 4.64326 28.8412L0.216106 14.7147C-0.374181 12.8312 0.272472 10.7678 1.81786 9.60372L13.4083 0.873066ZM15.8674 13.9896C15.98 14.0009 16.0935 14.0009 16.2061 13.9896L19.0466 13.7055L23.2465 12.9853C25.107 12.6663 26.0873 15.1896 24.5329 16.2966L21.9927 18.1057C21.3487 18.5643 21.0725 19.4076 21.314 20.178L22.2393 23.1305C22.7673 24.8152 20.9076 26.2161 19.5253 25.175L17.0734 23.3282C16.4552 22.8626 15.6182 22.8626 15.0001 23.3282L12.5482 25.175C11.1659 26.2161 9.30618 24.8152 9.83417 23.1305L10.7639 20.1641C11.0032 19.4004 10.7339 18.564 10.1 18.1025L7.60512 16.2863C6.06754 15.167 7.059 12.663 8.91164 12.9867L13.0268 13.7055L15.8674 13.9896ZM16.1102 12.7875C17.8351 12.7875 19.2335 11.3378 19.2335 9.54941C19.2335 7.76105 17.8351 6.31131 16.1102 6.31131C14.3853 6.31131 12.987 7.76105 12.987 9.54941C12.987 11.3378 14.3853 12.7875 16.1102 12.7875Z" fill="#0C64E6"/>
</svg>
