<svg width="1000" height="1000" viewBox="0 0 1000 1000" fill="none" xmlns="http://www.w3.org/2000/svg">
<path fill-rule="evenodd" clip-rule="evenodd" d="M419.009 27.2833C467.303 -9.09441 532.697 -9.09445 580.991 27.2833L943.192 300.116C991.485 336.494 1011.69 400.975 993.247 459.835L854.898 901.288C836.452 960.148 783.547 1000 723.853 1000H276.147C216.453 1000 163.548 960.149 145.102 901.288L6.7533 459.835C-11.6932 400.975 8.51476 336.494 56.8082 300.116L419.009 27.2833ZM495.856 437.175C499.376 437.527 502.921 437.527 506.441 437.175L595.207 428.297L726.454 405.791C784.594 395.822 815.228 474.676 766.654 509.269L687.273 565.803C667.148 580.135 658.516 606.488 666.061 630.563L694.979 722.829C711.478 775.475 653.361 819.254 610.165 786.718L533.543 729.005C514.226 714.455 488.07 714.455 468.753 729.005L392.131 786.718C348.935 819.254 290.818 775.475 307.318 722.829L336.371 630.129C343.851 606.261 335.435 580.126 315.625 565.704L237.66 508.948C189.611 473.969 220.594 395.72 278.489 405.833L407.089 428.297L495.856 437.175ZM503.445 399.609C557.348 399.609 601.046 354.305 601.046 298.419C601.046 242.533 557.348 197.228 503.445 197.228C449.541 197.228 405.844 242.533 405.844 298.419C405.844 354.305 449.541 399.609 503.445 399.609Z" fill="#0C64E6"/>
</svg>
