<svg width="96" height="96" viewBox="0 0 96 96" fill="none" xmlns="http://www.w3.org/2000/svg">
<path fill-rule="evenodd" clip-rule="evenodd" d="M40.2249 2.6192C44.8611 -0.873063 51.1389 -0.873067 55.7751 2.61919L90.5464 28.8111C95.1826 32.3034 97.1225 38.4936 95.3517 44.1442L82.0702 86.5237C80.2994 92.1743 75.2205 96 69.4899 96H26.5102C20.7795 96 15.7006 92.1743 13.9298 86.5237L0.648317 44.1442C-1.12254 38.4936 0.817417 32.3034 5.45359 28.8112L40.2249 2.6192ZM47.6022 41.9688C47.9401 42.0026 48.2804 42.0026 48.6183 41.9688L57.1399 41.1165L69.7396 38.956C75.3211 37.9989 78.2619 45.5689 73.5988 48.8899L65.9782 54.3171C64.0462 55.693 63.2176 58.2228 63.9419 60.534L66.7179 69.3916C68.3019 74.4456 62.7227 78.6484 58.5759 75.525L51.2202 69.9844C49.3657 68.5876 46.8547 68.5876 45.0003 69.9844L37.6446 75.525C33.4978 78.6484 27.9185 74.4456 29.5025 69.3916L32.2916 60.4924C33.0097 58.2011 32.2018 55.6921 30.3 54.3076L22.8154 48.859C18.2026 45.501 21.177 37.9891 26.7349 38.96L39.0805 41.1165L47.6022 41.9688ZM48.3307 38.3625C53.5054 38.3625 57.7004 34.0133 57.7004 28.6482C57.7004 23.2832 53.5054 18.9339 48.3307 18.9339C43.156 18.9339 38.961 23.2832 38.961 28.6482C38.961 34.0133 43.156 38.3625 48.3307 38.3625Z" fill="#0C64E6"/>
</svg>
